<svg id="_0509_chart" xmlns="http://www.w3.org/2000/svg" viewBox="0 0 500 500" data-imageid="chart-20" imageName="Chart" class="illustrations_image" style="width: 166px;"><defs><style>.cls-1_chart-20{fill:#fff;}.cls-2_chart-20{opacity:.46;}.cls-2_chart-20,.cls-3_chart-20{fill:none;}.cls-4_chart-20{fill:#a5a5a5;}.cls-5_chart-20{fill:#e6e6e6;}.cls-3_chart-20{opacity:.08;}.cls-6_chart-20{fill:#24285b;}.cls-7_chart-20{fill:#000001;}.cls-8_chart-20{fill:#ffd200;}.cls-9_chart-20{fill:#68e1fd;}</style></defs><g id="screen_chart-20"><rect class="cls-5_chart-20" x="32.14" y="104.19" width="432.61" height="306.45"/><rect class="cls-4_chart-20" x="32.14" y="67.02" width="432.61" height="37.17"/><path class="cls-4_chart-20" d="m340.02,341.38c-1.43,0-2.92-.05-4.47-.16-26.77-1.91-34.86-30.89-42.68-58.91-8.31-29.79-16.15-57.92-44.31-56.17-22.55,1.4-34.68,17.71-46.41,33.49-11.27,15.16-21.92,29.48-40.83,30.75-1.67.11-3.3.17-4.87.17-27.59,0-39.61-16.71-50.3-31.55-8.94-12.42-16.67-23.15-31.85-23.15-.11,0-.23,0-.34,0l-.04-4c.13,0,.26,0,.39,0,17.22,0,25.9,12.06,35.09,24.82,11.21,15.56,22.83,31.65,51.65,29.73,17.07-1.14,27.18-14.74,37.89-29.14,12.27-16.51,24.97-33.58,49.37-35.1,31.39-1.96,40.04,29.08,48.41,59.09,7.79,27.92,15.14,54.29,39.11,56,26.03,1.86,33.22-13.7,41.56-31.72,8.41-18.17,17.94-38.77,49.02-43.21l.57,3.96c-28.93,4.13-37.59,22.84-45.96,40.93-8.12,17.56-15.83,34.2-41,34.2Z"/><rect class="cls-4_chart-20" x="73.45" y="208.99" width="1" height="149.63"/><rect class="cls-4_chart-20" x="160.7" y="208.99" width="1" height="149.63"/><rect class="cls-4_chart-20" x="247.95" y="208.99" width="1" height="149.63"/><rect class="cls-4_chart-20" x="335.2" y="208.99" width="1" height="149.63"/><rect class="cls-4_chart-20" x="422.45" y="208.99" width="1" height="149.63"/><g class="cls-3_chart-20"><rect class="cls-7_chart-20" x="32.14" y="186.41" width="122.31" height="82.98"/></g><g class="cls-3_chart-20"><rect class="cls-7_chart-20" x="96.07" y="334.2" width="122.31" height="76.43"/></g><g class="cls-3_chart-20"><rect class="cls-7_chart-20" x="257.59" y="310.38" width="124.15" height="100.25"/></g><g class="cls-3_chart-20"><rect class="cls-7_chart-20" x="355.1" y="188.9" width="109.65" height="44.5"/></g><circle class="cls-9_chart-20 targetColor" cx="56.31" cy="85.25" r="6.02" style="fill: rgb(200, 78, 168);"/><circle class="cls-8_chart-20" cx="75.54" cy="85.25" r="6.02"/><circle class="cls-6_chart-20" cx="94.78" cy="85.25" r="6.02"/><g class="cls-2_chart-20"><rect class="cls-1_chart-20" x="56.31" y="120.98" width="385.64" height="42.11"/></g></g><g id="stat4_chart-20"><rect class="cls-9_chart-20 targetColor" x="14.01" y="178.82" width="133.74" height="82.67" style="fill: rgb(200, 78, 168);"/><g class="cls-2_chart-20"><polygon class="cls-1_chart-20" points="26.85 240.87 26.85 225.98 49.54 213.53 60.4 227.2 85.99 208.93 97.18 224.9 134.9 199.44 134.9 240.87 26.85 240.87"/></g><rect class="cls-8_chart-20" x="26.85" y="201.61" width="24.25" height="4.15"/><rect class="cls-6_chart-20" x="26.85" y="191.59" width="34.63" height="4.15"/></g><g id="stat3_chart-20"><rect class="cls-9_chart-20 targetColor" x="59.96" y="322.67" width="148.52" height="107.51" style="fill: rgb(200, 78, 168);"/><rect class="cls-8_chart-20" x="80.88" y="384.04" width="20.43" height="35.19"/><rect class="cls-6_chart-20" x="170.37" y="376.02" width="20.43" height="43.21"/><rect class="cls-6_chart-20" x="110.97" y="355.96" width="20.43" height="63.27"/><rect class="cls-6_chart-20" x="141.34" y="335.59" width="20.43" height="83.64"/></g><g id="stat2_chart-20"><rect class="cls-9_chart-20 targetColor" x="265.92" y="295.4" width="220.07" height="137.58" style="fill: rgb(200, 78, 168);"/><g class="cls-3_chart-20"><path class="cls-7_chart-20" d="m338.26,413.34c-27.1,0-49.15-22.05-49.15-49.15s22.05-49.15,49.15-49.15,49.15,22.05,49.15,49.15-22.05,49.15-49.15,49.15Zm0-85.06c-19.8,0-35.91,16.11-35.91,35.91s16.11,35.91,35.91,35.91,35.91-16.11,35.91-35.91-16.11-35.91-35.91-35.91Z"/></g><g class="cls-2_chart-20"><path class="cls-1_chart-20" d="m338.26,413.34c-12.03,0-23.61-4.39-32.6-12.37l8.78-9.9c6.57,5.83,15.03,9.03,23.82,9.03v13.24Z"/></g><path class="cls-6_chart-20" d="m387.4,364.19h-13.24c0-19.8-16.11-35.91-35.91-35.91v-13.24c27.1,0,49.15,22.05,49.15,49.15Z"/><path class="cls-8_chart-20" d="m338.26,413.34v-13.24c19.8,0,35.91-16.11,35.91-35.91h13.24c0,27.1-22.05,49.15-49.15,49.15Z"/><g class="cls-3_chart-20"><path class="cls-7_chart-20" d="m339.34,348.29c.87,0,1.14.3,1.14,1.18v1.86c3.49.49,5.5,2.24,6.98,5.27.46.91.27,1.4-.76,1.86l-1.86.84c-.87.42-1.29.23-1.78-.68-1.02-1.97-2.28-2.92-4.86-2.92-3.23,0-4.71.95-4.71,3.11,0,1.4,1.29,2.28,2.62,2.54.65.15,1.56.3,2.73.42,2.13.19,3.19.34,5.05.99.95.34,1.67.72,2.24,1.21,1.06.99,2.01,2.88,2.01,5.31,0,4.14-2.77,6.94-7.67,7.67v1.97c0,.87-.27,1.18-1.14,1.18h-2.09c-.87,0-1.18-.3-1.18-1.18v-1.94c-3.8-.49-6.34-2.43-7.59-5.84-.3-.83,0-1.4.87-1.75l1.86-.68c.95-.34,1.37-.11,1.78.84.83,2.12,2.54,3.19,5.12,3.19,3.49,0,5.24-1.1,5.24-3.34,0-1.18-.53-1.9-1.63-2.35-1.1-.42-2.05-.57-3.76-.72-2.09-.19-3.26-.42-5.09-1.1-.91-.34-1.63-.76-2.2-1.25-1.14-1.02-2.05-2.85-2.05-5.16,0-4.1,2.58-6.83,7.44-7.48v-1.86c0-.87.3-1.18,1.18-1.18h2.09Z"/></g><g class="cls-3_chart-20"><rect class="cls-7_chart-20" x="403.7" y="334.2" width="59.11" height="9.7"/></g><g class="cls-3_chart-20"><rect class="cls-7_chart-20" x="403.63" y="359.37" width="59.11" height="9.7"/></g><g class="cls-3_chart-20"><rect class="cls-7_chart-20" x="403.63" y="384.48" width="44.29" height="9.7"/></g></g><g id="stat1_chart-20"><rect class="cls-9_chart-20 targetColor" x="366.78" y="173.38" width="112.35" height="51.95" style="fill: rgb(200, 78, 168);"/><circle class="cls-6_chart-20" cx="384.12" cy="189.81" r="6.67"/><g class="cls-3_chart-20"><rect class="cls-7_chart-20" x="398.4" y="186.41" width="70.05" height="6.8"/></g><circle class="cls-8_chart-20" cx="384.12" cy="208.89" r="6.67"/><g class="cls-3_chart-20"><rect class="cls-7_chart-20" x="398.4" y="205.49" width="70.05" height="6.8"/></g></g></svg>