<svg transform="scale(1)" id="_0712_Database_3" xmlns="http://www.w3.org/2000/svg" viewBox="0 0 500 500" class="show_show__wrapper__graphic__5Waiy "><title>React</title><defs><style>.cls-1{fill:#fff;}.cls-2{fill:#f4a28c;}.cls-3{fill:#a5a5a5;}.cls-4{fill:#e6e6e6;}.cls-5{fill:none;opacity:.03;}.cls-6{fill:#24285b;}.cls-7{fill:#000001;}.cls-8{fill:#ffd200;}.cls-9{fill:#1c3e6c;}</style></defs><g id="bg"><g class="cls-5"><ellipse class="cls-7" cx="250" cy="463.39" rx="198.38" ry="24.68"></ellipse></g><g class="cls-5"><circle class="cls-7" cx="250" cy="262.96" r="183.64"></circle></g><path class="cls-4" d="m48.09,181.28h74.31s2.4-13.35-9.58-18.82c-11.98-5.48-17.45,3.21-17.45,3.21,0,0,1.71-17.24-11.98-20.32-18.36-4.13-20.53,15.21-20.53,15.21,0,0-21.32-2.89-14.77,20.72Z"></path><path class="cls-4" d="m393.48,194.8h55.03s1.77-9.88-7.1-13.94c-8.87-4.05-12.92,2.38-12.92,2.38,0,0,1.27-12.77-8.87-15.05-13.59-3.06-15.21,11.26-15.21,11.26,0,0-15.79-2.14-10.93,15.35Z"></path><path class="cls-4" d="m147.95,54.41h54.65s1.76-9.82-7.05-13.84c-8.81-4.03-12.84,2.36-12.84,2.36,0,0,1.26-12.68-8.81-14.95-13.5-3.04-15.1,11.19-15.1,11.19,0,0-15.68-2.13-10.86,15.24Z"></path><circle class="cls-8" cx="398.78" cy="57.5" r="36.57"></circle></g><g id="database"><path class="cls-3" d="m137.79,408.28v44.68c0,14.42,50.24,26.11,112.21,26.11s112.21-11.69,112.21-26.11v-44.68h-224.42Z"></path><ellipse class="cls-4" cx="250" cy="408.28" rx="112.21" ry="26.11"></ellipse><path class="cls-1" d="m246.65,460.46c-52.63,0-83.88-11.01-84.3-11.16-1.04-.38-1.58-1.52-1.2-2.56.38-1.04,1.52-1.58,2.56-1.2.58.21,59.39,20.87,152,4.84,1.1-.18,2.12.54,2.31,1.63.19,1.09-.54,2.12-1.63,2.31-26.05,4.51-49.48,6.14-69.74,6.14Z"></path><circle class="cls-1" cx="338.12" cy="447.42" r="8.71"></circle><path class="cls-3" d="m137.79,319.8v44.68c0,14.42,50.24,26.11,112.21,26.11s112.21-11.69,112.21-26.11v-44.68h-224.42Z"></path><ellipse class="cls-4" cx="250" cy="319.8" rx="112.21" ry="26.11"></ellipse><path class="cls-1" d="m246.65,371.98c-52.62,0-83.87-11-84.3-11.16-1.04-.38-1.58-1.52-1.2-2.56.38-1.04,1.52-1.58,2.56-1.2.58.21,59.39,20.86,152,4.84,1.1-.18,2.12.54,2.31,1.63.19,1.09-.54,2.12-1.63,2.31-26.05,4.51-49.48,6.14-69.74,6.14Z"></path><circle class="cls-1" cx="338.12" cy="358.94" r="8.71"></circle><path class="cls-3" d="m137.79,230.42v44.68c0,14.42,50.24,26.11,112.21,26.11s112.21-11.69,112.21-26.11v-44.68h-224.42Z"></path><ellipse class="cls-4" cx="250" cy="230.42" rx="112.21" ry="26.11"></ellipse><path class="cls-1" d="m246.65,282.6c-52.62,0-83.88-11.01-84.3-11.16-1.04-.38-1.58-1.52-1.2-2.56.38-1.04,1.52-1.58,2.56-1.2.58.21,59.39,20.86,152,4.84,1.1-.18,2.12.54,2.31,1.63.19,1.09-.54,2.12-1.63,2.31-26.05,4.51-49.48,6.14-69.74,6.14Z"></path><circle class="cls-1" cx="338.12" cy="269.56" r="8.71"></circle></g><g id="person"><path class="cls-9" d="m246.57,74.6s-45.24-4.87-65.04,37.06c-19.8,41.93-32.5,75.41,2.14,92.73,34.64,17.32,137.03,5.98,159.72-13.17s3.07-44.55-14.25-72.26c-17.32-27.71-19.67-59.84-82.57-44.35Z"></path><path class="cls-2" d="m263.49,33.84l4.19,2.13c1.03.53,1.17,1.95.25,2.66l-3.04,2.36-1.4-7.15Z"></path><path class="cls-2" d="m259.92,27.39s6.02,9.6,7.76,17.15c.7,3.06-1.24,6.16-4.31,6.82-3.81.82-9.21.82-13.06-3.93l-7.53-7.26s-4.56-4.72-.97-11.72c3.59-7,14.74-7.08,18.11-1.05Z"></path><polygon class="cls-2" points="244.23 36.29 243.79 74.33 270.81 86.29 254.67 40.59 244.23 36.29"></polygon><path class="cls-6" d="m261.26,21.7s2.53-.14,1.84,3.77c-.69,3.91-6.04,2.77-6.04,2.77,0,0-.39,4.46-4.32,4.77-3.93.32-4.35,2.76-4.35,2.76,0,0,.72,3.36,3.56,5.4,2.84,2.04,11.9-3.29,14.86-1.69s3.94,9.64.24,11.87-11.17,1.98-14.53-.48c-3.36-2.46-8.9-8.52-8.9-8.52,0,0-5.1-4.61-6.17-8.53s1.95-5.74,1.95-5.74c0,0-.02-6.02,2.07-8.36,2.09-2.33,5.27-.88,5.27-.88,0,0,.72-5.92,3.97-6.7s4.46,4.78,4.46,4.78c0,0,1.91-1.98,4.9-.93,2.98,1.05,2.28,4.21,1.19,5.69Z"></path><path class="cls-6" d="m196.33,191.21s-59.32,7.29-47.82,35.63c11.5,28.34,105.78,0,105.78,0,0,0,60.43,16.88,88.14,7.03,27.71-9.86-1.67-39.67-34.32-42.66-32.65-2.99-111.78,0-111.78,0Z"></path><path class="cls-8" d="m211.19,190.21l-5.79-54.79c-.51-4.78,3.24-8.95,8.05-8.95h88.34c4.77,0,8.5,4.1,8.06,8.85l-5.1,54.79c-.39,4.16-3.88,7.35-8.06,7.35h-77.44c-4.14,0-7.62-3.13-8.05-7.24Z"></path><circle class="cls-1" cx="259.43" cy="161.47" r="5.58"></circle><path class="cls-9" d="m241.39,216.7s-19.24,15.84-10.78,22.74c8.47,6.89,23.67-12.6,23.67-12.6l-12.89-10.14Z"></path></g></svg>