<svg id="_0149_production" xmlns="http://www.w3.org/2000/svg" viewBox="0 0 500 500" data-imageid="production-line-7" imageName="Production Line" class="illustrations_image" style="width: 166px;"><defs><style>.cls-1_production-line-7{fill:#fff;}.cls-2_production-line-7{opacity:.39;}.cls-2_production-line-7,.cls-3_production-line-7,.cls-4_production-line-7,.cls-5_production-line-7,.cls-6_production-line-7,.cls-7_production-line-7{fill:none;}.cls-8_production-line-7{fill:#f4a28c;}.cls-9_production-line-7{fill:#a5a5a5;}.cls-3_production-line-7{opacity:.17;}.cls-4_production-line-7{opacity:.44;}.cls-10_production-line-7{fill:#e6e6e6;}.cls-5_production-line-7{opacity:.03;}.cls-6_production-line-7{opacity:.08;}.cls-7_production-line-7{opacity:.12;}.cls-11_production-line-7{fill:#24285b;}.cls-12_production-line-7{fill:#000001;}.cls-13_production-line-7{fill:#ffd200;}.cls-14_production-line-7{fill:#68e1fd;}</style></defs><g id="box3_production-line-7"><rect class="cls-13_production-line-7" x="113.53" y="255.78" width="69.98" height="64.55"/><g class="cls-4_production-line-7"><rect class="cls-1_production-line-7" x="142.19" y="255.78" width="12.9" height="18.87"/></g><rect class="cls-1_production-line-7" x="160.34" y="298.29" width="13.02" height="13.02"/><g class="cls-6_production-line-7"><polygon class="cls-12_production-line-7" points="133.85 255.78 143.4 320.13 113.53 320.13 113.53 255.78 133.85 255.78"/></g></g><g id="machine_production-line-7"><rect class="cls-10_production-line-7" x="78.33" y="320.13" width="329.43" height="51.22" rx="18.25" ry="18.25"/><g class="cls-5_production-line-7"><ellipse class="cls-12_production-line-7" cx="239.85" cy="439.6" rx="225.93" ry="8.67"/></g><rect class="cls-10_production-line-7" x="40.46" y="185.32" width="84.07" height="253.79"/><g class="cls-6_production-line-7"><rect class="cls-12_production-line-7" x="124.53" y="320.13" width="12.42" height="51.22"/></g><rect class="cls-11_production-line-7" x="55.75" y="212.86" width="53.5" height="72.68"/><circle class="cls-13_production-line-7" cx="72.32" cy="235.27" r="7.43"/><circle class="cls-14_production-line-7 targetColor" cx="72.32" cy="259.09" r="7.43" style="fill: rgb(200, 78, 168);"/><g class="cls-3_production-line-7"><rect class="cls-1_production-line-7" x="86.92" y="227.84" width="14.15" height="38.69"/></g><rect class="cls-10_production-line-7" x="349.99" y="337.89" width="36.3" height="101.23"/><g class="cls-6_production-line-7"><circle class="cls-12_production-line-7" cx="374.02" cy="344.52" r="12.27"/></g></g><g id="box2_production-line-7"><rect class="cls-13_production-line-7" x="308.43" y="255.78" width="69.98" height="64.55"/><g class="cls-4_production-line-7"><rect class="cls-1_production-line-7" x="337.09" y="255.78" width="12.9" height="18.87"/></g><rect class="cls-1_production-line-7" x="355.24" y="298.29" width="13.02" height="13.02"/></g><g id="box1_production-line-7"><rect class="cls-13_production-line-7" x="416.11" y="374.72" width="69.98" height="64.55"/><g class="cls-4_production-line-7"><rect class="cls-1_production-line-7" x="444.77" y="374.72" width="12.9" height="18.87"/></g><rect class="cls-1_production-line-7" x="462.92" y="417.23" width="13.02" height="13.02"/></g><g id="person_production-line-7"><path class="cls-14_production-line-7 targetColor" d="m181.55,206.49s-61.29,70.55-16.14,94.15c31.21,16.32,65.9-6.18,65.9-6.18l-49.75-87.98Z" style="fill: rgb(200, 78, 168);"/><g class="cls-6_production-line-7"><path class="cls-12_production-line-7" d="m181.55,206.49s-61.29,70.55-16.14,94.15c31.21,16.32,65.9-6.18,65.9-6.18l-49.75-87.98Z"/></g><path class="cls-14_production-line-7 targetColor" d="m288.42,433.21l8.25,6.46c1.46,1.14.65,3.48-1.2,3.48h-10.46c-3.08,0-5.59-2.5-5.59-5.59v-4.35h8.99Z" style="fill: rgb(200, 78, 168);"/><path class="cls-14_production-line-7 targetColor" d="m200.24,433.21l-8.25,6.46c-1.46,1.14-.65,3.48,1.2,3.48h10.46c3.08,0,5.59-2.5,5.59-5.59v-4.35s-8.99,0-8.99,0Z" style="fill: rgb(200, 78, 168);"/><path class="cls-8_production-line-7" d="m233.8,195.61l1.42-23.39s1.67-15.05,9.22-12.33c7.54,2.72,15.4,17.55,11.34,22.16-2.2,2.49-4.5.98-7.45,1.25-2.54.24-2.1-.15-2.1,2.41v8.94l-12.43.95Z"/><path class="cls-14_production-line-7 targetColor" d="m226.29,194.46s-46.96-4.18-53.1,27.51c-6.14,31.69,37.57,91.55,37.57,91.55l60.9-2.37s94.61-132.89-45.37-116.7Z" style="fill: rgb(200, 78, 168);"/><g class="cls-6_production-line-7"><path class="cls-12_production-line-7" d="m267.72,207.26s-36.42,21.98-18.54,55.45c11.47,21.49-17.88,50.01-17.88,50.01l40.36-1.57s14.78-21.92,17.73-30.45c2.95-8.52-21.67-73.45-21.67-73.45Z"/></g><polygon class="cls-11_production-line-7" points="210.77 313.53 196.94 433.21 210.47 433.23 240.7 337.15 274.75 433.25 290.24 433.25 271.66 311.16 210.77 313.53"/><path class="cls-11_production-line-7" d="m233.8,185.9h7.33s1.58-13.53,6.77-16.13c5.18-2.59,10.37-7.49,5.76-11.95-4.61-4.46-11.15-9.65-18.82-4.32-7.67,5.33-10.37,18.14-1.03,32.4Z"/><path class="cls-13_production-line-7" d="m224.98,166.61l40.06,1.96-4.57-6.74s-2.49-15.81-11.61-18.16c-9.12-2.35-25.06,2.94-23.88,22.94Z"/><path class="cls-14_production-line-7 targetColor" d="m259.82,216.4c1.47-13.53,16.46-21.35,28.08-14.27,8.14,4.97,16.25,13.65,20.66,28.79,8.64,29.65,4.41,47.2,62.2,48.09v15.88s-122.71,29.89-110.94-78.49Z" style="fill: rgb(200, 78, 168);"/><g class="cls-2_production-line-7"><path class="cls-1_production-line-7" d="m259.82,216.4c1.47-13.53,16.46-21.35,28.08-14.27,8.14,4.97,16.25,13.65,20.66,28.79,8.64,29.65,4.41,47.2,62.2,48.09v15.88s-122.71,29.89-110.94-78.49Z"/></g><path class="cls-8_production-line-7" d="m370.77,281.92s15.07-2.15,16.54,2.26c1.47,4.41.45,8.8-16.54,7.49v-9.74Z"/></g><g id="check2_production-line-7"><polygon class="cls-10_production-line-7" points="323.97 190.63 323.97 216.41 340.63 216.41 344.27 226.67 348.57 216.41 365.23 216.41 365.23 190.63 323.97 190.63"/><g class="cls-7_production-line-7"><path class="cls-12_production-line-7" d="m342.52,209.28s-.04,0-.06,0c-.38-.02-.73-.2-.96-.5l-4.36-5.61c-.44-.56-.33-1.37.23-1.81.56-.44,1.37-.33,1.81.23l3.42,4.41,8.45-9.12c.48-.52,1.3-.56,1.82-.07.52.48.55,1.3.07,1.82l-9.48,10.24c-.24.26-.59.41-.95.41Z"/></g></g><g id="check1_production-line-7"><polygon class="cls-10_production-line-7" points="433.02 316.9 433.02 342.68 449.68 342.68 453.32 352.94 457.63 342.68 474.28 342.68 474.28 316.9 433.02 316.9"/><g class="cls-7_production-line-7"><path class="cls-12_production-line-7" d="m451.57,335.55s-.04,0-.06,0c-.38-.02-.73-.2-.96-.5l-4.36-5.61c-.44-.56-.33-1.37.23-1.81.56-.44,1.37-.33,1.81.23l3.42,4.41,8.45-9.12c.48-.52,1.3-.56,1.82-.07.52.48.55,1.3.07,1.82l-9.48,10.24c-.24.26-.59.41-.95.41Z"/></g></g><g id="move_production-line-7"><rect class="cls-9_production-line-7" x="89.54" y="85.5" width="267.91" height="23.2"/><polygon class="cls-9_production-line-7" points="410.46 97.1 344.82 59.2 344.82 135 410.46 97.1"/></g></svg>