<svg id="_0485_settings_storage" xmlns="http://www.w3.org/2000/svg" xmlns:xlink="http://www.w3.org/1999/xlink" viewBox="0 0 500 500" data-imageid="settings-49" imageName="Settings" class="illustrations_image" style="width: 166px;"><defs><style>.cls-1_settings-49{opacity:.1;}.cls-1_settings-49,.cls-2_settings-49,.cls-3_settings-49,.cls-4_settings-49,.cls-5_settings-49,.cls-6_settings-49,.cls-7_settings-49,.cls-8_settings-49,.cls-9_settings-49,.cls-10_settings-49,.cls-11_settings-49{stroke-width:0px;}.cls-1_settings-49,.cls-3_settings-49,.cls-11_settings-49{isolation:isolate;}.cls-1_settings-49,.cls-10_settings-49,.cls-11_settings-49{fill:#020202;}.cls-2_settings-49{fill:url(#linear-gradient);}.cls-3_settings-49{opacity:.18;}.cls-3_settings-49,.cls-9_settings-49{fill:#68e1fd;}.cls-12_settings-49,.cls-11_settings-49{opacity:.19;}.cls-13_settings-49{opacity:.27;}.cls-4_settings-49{fill:url(#linear-gradient-2-settings-49);}.cls-5_settings-49{fill:#473f47;}.cls-6_settings-49{fill:#c14834;}.cls-7_settings-49{fill:#fff;}.cls-8_settings-49{fill:#ffbaa8;}</style><linearGradient id="linear-gradient-settings-49" x1="704.05" y1="3088.2" x2="693.74" y2="3054.34" gradientTransform="translate(-471 3367.76) scale(1 -1)" gradientUnits="userSpaceOnUse"><stop offset="0" stop-color="#231f20"/><stop offset=".13" stop-color="#231f20" stop-opacity=".69"/><stop offset=".25" stop-color="#231f20" stop-opacity=".32"/><stop offset="1" stop-color="#231f20" stop-opacity="0"/></linearGradient><linearGradient id="linear-gradient-2-settings-49" x1="724.84" y1="3040.58" x2="722.31" y2="3101.11" xlink:href="#linear-gradient-settings-49"/></defs><g id="background_settings-49"><path class="cls-3_settings-49 targetColor" d="M292.21,44.45c-33.33,11.13-58.82,37.77-89.22,55.49-36.41,21.12-79.63,29-114.67,52.29-36.62,24.34-61.16,63.84-74.65,105.68-11.57,35.98-15.54,75.33-4.93,111.52,10.61,36.19,37.31,68.87,73.17,80.84,36.86,12.29,76.88,2.01,115.7.4,53.08-2.23,106.86,11.98,158.97,1.64,43.82-8.9,82.51-34.36,108.03-71.07,6.65-9.16,11.63-19.42,14.71-30.31,3.35-13.11,2.64-26.86,3.17-40.38,1.24-32.95,9.88-65.24,12.23-98.14,1.8-24.93-.36-51.64-11.91-74.24-13.29-26.05-37.23-36.44-59.52-53.12-39.07-29.28-79.2-57.92-131.09-40.6Z" style="fill: rgb(200, 78, 168);"/></g><g id="gear_settings-49"><g id="Q83r0t_settings-49"><path class="cls-9_settings-49 targetColor" d="M444.98,254.47c-2.15-.56-3.98-1.98-5.07-3.92-.81-1.42-1.55-2.9-2.37-4.3-1.45-2.86-4.58-4.47-7.75-3.99-3.19.27-5.87,2.51-6.69,5.61-.54,1.67-.95,3.36-1.51,5.02-1.37,4.35-6,6.77-10.35,5.41,0,0-.02,0-.03,0-3.13-.88-6.28-1.8-9.41-2.75-4.46-1.22-7.08-5.82-5.87-10.27.02-.07.04-.13.06-.2.45-1.67,1.03-3.33,1.46-5.02.88-3.03-.24-6.28-2.79-8.13-2.32-2.04-5.69-2.36-8.36-.81-1.46.74-2.86,1.58-4.32,2.34-4.13,2.24-9.3.7-11.53-3.43-.03-.05-.06-.11-.09-.17-1.65-2.95-3.29-5.9-4.89-8.89-2.32-3.91-1.03-8.97,2.89-11.29.17-.1.34-.19.51-.28,1.37-.77,2.79-1.47,4.16-2.27,2.78-1.37,4.37-4.37,3.94-7.45-.15-3.14-2.27-5.85-5.29-6.75-1.65-.58-3.36-.97-5.02-1.51-4.47-1.18-7.13-5.76-5.94-10.23.06-.24.14-.48.22-.71.86-2.97,1.8-5.95,2.63-8.99,1.13-4.3,5.47-6.92,9.8-5.92,1.8.36,3.47.94,5.2,1.44,3.12,1.19,6.65.22,8.72-2.39,2.13-2.56,2.34-6.21.5-8.99-.74-1.33-1.49-2.64-2.18-4.01-2.17-3.94-.73-8.9,3.21-11.07.02-.01.04-.02.06-.03,3.18-1.8,6.42-3.6,9.7-5.16,4.03-1.99,8.91-.48,11.12,3.44.85,1.46,1.6,2.99,2.46,4.42,1.44,2.73,4.45,4.25,7.5,3.8,3.15-.19,5.83-2.36,6.67-5.4.5-1.56.9-3.15,1.39-4.71,1.17-4.53,5.8-7.25,10.33-6.08.24.06.47.13.7.21l8.74,2.57c4.52,1.11,7.28,5.66,6.17,10.18-.04.16-.08.31-.13.47-.38,1.53-.86,3.02-1.31,4.53-1.31,4.14.98,8.56,5.12,9.87,2.1.66,4.38.42,6.28-.67,1.33-.72,2.66-1.47,4.01-2.18,4.11-2.26,9.27-.75,11.53,3.36,0,0,0,0,0,0,1.73,3.05,3.41,6.1,5.05,9.17,2.24,3.92.88,8.92-3.04,11.17-.1.06-.2.11-.3.16-1.48.83-2.99,1.56-4.46,2.41-2.57,1.35-4.08,4.11-3.83,7-.04,3.04,1.83,5.77,4.68,6.84,1.71.7,3.6,1.12,5.4,1.67,4.15.93,6.75,5.05,5.82,9.2-.06.25-.13.5-.21.75-.88,3.44-1.89,6.85-2.99,10.22-1.08,4.2-5.36,6.74-9.57,5.66-.28-.07-.56-.16-.83-.26-1.56-.43-3.13-.97-4.71-1.33-2.98-.81-6.15.35-7.91,2.88-1.95,2.32-2.23,5.62-.7,8.24.77,1.49,1.65,2.93,2.45,4.42,2.25,3.97.85,9.01-3.12,11.25-.07.04-.14.08-.21.12-3.04,1.8-6.12,3.36-9.19,5.02-1.97,1.13-4.32,1.39-6.49.72ZM398.82,186.96c-4.2,14.3,3.99,29.29,18.29,33.49,14.3,4.2,29.29-3.99,33.49-18.29,4.18-14.25-3.94-29.21-18.18-33.45-14.28-4.26-29.31,3.86-33.57,18.14-.01.04-.02.08-.03.11Z" style="fill: rgb(200, 78, 168);"/></g><g id="Q83r0t-2_settings-49"><path class="cls-9_settings-49 targetColor" d="M330.72,397.71c-5.05.1-9.93-1.85-13.53-5.4-2.66-2.55-5.18-5.29-7.88-7.81-5.65-5.29-12.16-6.87-19.37-3.76-6.78,2.6-11.18,9.2-10.99,16.46-.09,3.96.09,7.91-.09,11.85-.16,10.3-8.63,18.52-18.93,18.37-.05,0-.1,0-.15,0h-22.2c-10.47.19-19.11-8.14-19.3-18.61,0-.15,0-.29,0-.44-.09-3.96,0-7.91,0-11.85.02-7.13-4.46-13.49-11.19-15.87-6.37-2.9-13.88-1.46-18.73,3.6-2.7,2.52-5.2,5.25-7.88,7.81-7.52,7.53-19.71,7.54-27.24.03-.08-.08-.16-.16-.24-.24-5.47-5.36-10.86-10.76-16.19-16.19-7.93-8.08-7.9-19.25,0-27.32,2.5-2.55,5.13-4.96,7.59-7.55,5.11-4.79,6.65-12.27,3.85-18.69-2.34-6.74-8.68-11.26-15.81-11.3-3.94-.18-7.9,0-11.85-.11-11.84-.43-19.34-8.27-19.35-20.11v-21.05c-.3-10.07,7.48-18.53,17.54-19.08,4.07-.34,8.17-.22,12.23-.22,8.13,0,13.94-3.6,17.16-11.08,3.04-7.03,1.35-13.85-4.62-19.79-2.43-2.43-4.93-4.82-7.2-7.32-7.24-7.22-7.25-18.94-.03-26.18.01-.01.02-.02.03-.03,5.78-6,11.7-11.79,17.77-17.39,7.45-6.89,18.99-6.77,26.3.27,2.77,2.63,5.4,5.4,8.18,8.06,4.88,5.01,12.4,6.4,18.74,3.45,6.71-2.41,11.16-8.81,11.08-15.94.09-3.6,0-7.39,0-11.08.27-11.89,8.29-19.79,20.2-19.79h20.67c11.42,0,19.44,7.79,19.79,19.3.14,3.6,0,7.2,0,10.79-.39,7.4,4.05,14.19,10.97,16.82,6.94,3.06,13.98,1.49,19.64-4.08,2.45-2.43,4.84-4.91,7.32-7.3,7.51-7.51,19.68-7.51,27.19,0,0,0,0,0,0,0,5.68,5.5,11.3,11.07,16.84,16.71,7.39,7.1,7.62,18.84.53,26.22-.17.18-.35.35-.53.53-2.66,2.75-5.5,5.4-8.17,8.06-4.77,4.55-6.31,11.53-3.89,17.66,1.9,6.59,7.69,11.31,14.53,11.85,4.16.45,8.4.18,12.59.27,11.1.2,18.17,6.93,18.53,17.99.25,8.02.27,16.06,0,24.1-.4,11.46-7.64,18.26-19.14,18.4-3.6,0-7.39-.13-11.08,0-6.99.15-13.14,4.67-15.38,11.3-2.78,6.28-1.3,13.64,3.71,18.35,2.64,2.75,5.4,5.4,8.15,8.08,7.4,7.19,7.57,19.01.38,26.4-.13.13-.25.26-.38.38-5.52,5.68-11.15,11.21-16.8,16.76-3.52,3.62-8.34,5.67-13.38,5.7ZM169.07,280.23c-.11,44.01,35.48,79.77,79.49,79.88,44.01.11,79.77-35.48,79.88-79.49.11-43.99-35.46-79.75-79.45-79.88-43.92-.22-79.7,35.21-79.92,79.13,0,.12,0,.24,0,.36Z" style="fill: rgb(200, 78, 168);"/></g><g id="Q83r0t-3_settings-49" class="cls-12_settings-49"><path class="cls-10_settings-49" d="M330.72,397.71c-5.05.1-9.93-1.85-13.53-5.4-2.66-2.55-5.18-5.29-7.88-7.81-5.65-5.29-12.16-6.87-19.37-3.76-6.78,2.6-11.18,9.2-10.99,16.46-.09,3.96.09,7.91-.09,11.85-.16,10.3-8.63,18.52-18.93,18.37-.05,0-.1,0-.15,0h-22.2c-10.47.19-19.11-8.14-19.3-18.61,0-.15,0-.29,0-.44-.09-3.96,0-7.91,0-11.85.02-7.13-4.46-13.49-11.19-15.87-6.37-2.9-13.88-1.46-18.73,3.6-2.7,2.52-5.2,5.25-7.88,7.81-7.52,7.53-19.71,7.54-27.24.03-.08-.08-.16-.16-.24-.24-5.47-5.36-10.86-10.76-16.19-16.19-7.93-8.08-7.9-19.25,0-27.32,2.5-2.55,5.13-4.96,7.59-7.55,5.11-4.79,6.65-12.27,3.85-18.69-2.34-6.74-8.68-11.26-15.81-11.3-3.94-.18-7.9,0-11.85-.11-11.84-.43-19.34-8.27-19.35-20.11v-21.05c-.3-10.07,7.48-18.53,17.54-19.08,4.07-.34,8.17-.22,12.23-.22,8.13,0,13.94-3.6,17.16-11.08,3.04-7.03,1.35-13.85-4.62-19.79-2.43-2.43-4.93-4.82-7.2-7.32-7.24-7.22-7.25-18.94-.03-26.18.01-.01.02-.02.03-.03,5.78-6,11.7-11.79,17.77-17.39,7.45-6.89,18.99-6.77,26.3.27,2.77,2.63,5.4,5.4,8.18,8.06,4.88,5.01,12.4,6.4,18.74,3.45,6.71-2.41,11.16-8.81,11.08-15.94.09-3.6,0-7.39,0-11.08.27-11.89,8.29-19.79,20.2-19.79h20.67c11.42,0,19.44,7.79,19.79,19.3.14,3.6,0,7.2,0,10.79-.39,7.4,4.05,14.19,10.97,16.82,6.94,3.06,13.98,1.49,19.64-4.08,2.45-2.43,4.84-4.91,7.32-7.3,7.51-7.51,19.68-7.51,27.19,0,0,0,0,0,0,0,5.68,5.5,11.3,11.07,16.84,16.71,7.39,7.1,7.62,18.84.53,26.22-.17.18-.35.35-.53.53-2.66,2.75-5.5,5.4-8.17,8.06-4.77,4.55-6.31,11.53-3.89,17.66,1.9,6.59,7.69,11.31,14.53,11.85,4.16.45,8.4.18,12.59.27,11.1.2,18.17,6.93,18.53,17.99.25,8.02.27,16.06,0,24.1-.4,11.46-7.64,18.26-19.14,18.4-3.6,0-7.39-.13-11.08,0-6.99.15-13.14,4.67-15.38,11.3-2.78,6.28-1.3,13.64,3.71,18.35,2.64,2.75,5.4,5.4,8.15,8.08,7.4,7.19,7.57,19.01.38,26.4-.13.13-.25.26-.38.38-5.52,5.68-11.15,11.21-16.8,16.76-3.52,3.62-8.34,5.67-13.38,5.7ZM169.07,280.23c-.11,44.01,35.48,79.77,79.49,79.88,44.01.11,79.77-35.48,79.88-79.49.11-43.99-35.46-79.75-79.45-79.88-43.92-.22-79.7,35.21-79.92,79.13,0,.12,0,.24,0,.36Z"/></g><g id="Q83r0t-4_settings-49"><path class="cls-9_settings-49 targetColor" d="M325.47,397.76c-5.05.11-9.92-1.84-13.51-5.4-2.66-2.55-5.18-5.27-7.88-7.81-5.65-5.29-12.18-6.87-19.37-3.76-6.78,2.61-11.18,9.2-11.01,16.46-.09,3.96,0,7.91,0,11.85-.18,10.32-8.69,18.54-19.01,18.37-.03,0-.06,0-.1,0h-22.18c-10.47.19-19.11-8.14-19.3-18.61,0-.15,0-.29,0-.44,0-3.94.09-7.91,0-11.85.03-7.12-4.45-13.49-11.17-15.87-6.38-2.9-13.89-1.46-18.74,3.6-2.7,2.52-5.2,5.25-7.88,7.81-7.52,7.53-19.71,7.54-27.24.03-.08-.08-.16-.16-.24-.24-5.4-5.4-10.9-10.79-16.19-16.19-7.93-8.08-7.9-19.25,0-27.32,2.5-2.55,5.14-4.96,7.61-7.55,5.11-4.79,6.65-12.27,3.85-18.69-2.35-6.81-8.78-11.37-15.99-11.33-3.96-.18-7.91,0-11.87-.11-11.82-.38-19.37-8.24-19.37-20.07v-21.05c-.29-10.07,7.5-18.53,17.56-19.08,4.05-.34,8.15-.22,12.23-.22,7.52.43,14.45-4.05,17.14-11.08,3.06-7.03,1.37-13.85-4.62-19.79-2.43-2.43-4.91-4.82-7.2-7.32-7.23-7.2-7.26-18.89-.06-26.13.02-.02.04-.04.06-.06,5.76-6,11.67-11.8,17.75-17.41,7.5-6.89,19.09-6.71,26.37.41,2.77,2.63,5.4,5.4,8.17,8.06,4.9,4.98,12.39,6.34,18.73,3.4,6.72-2.41,11.17-8.82,11.08-15.96v-11.08c.27-11.89,8.29-19.79,20.22-19.79h20.65c11.42,0,19.44,7.79,19.89,19.3.14,3.6,0,7.2,0,10.79-.38,7.39,4.05,14.18,10.97,16.8,6.93,3.06,13.96,1.49,19.62-4.08,2.46-2.41,4.84-4.91,7.32-7.3,7.52-7.5,19.7-7.5,27.22,0,5.67,5.5,11.3,11.06,16.82,16.71,7.39,7.11,7.61,18.86.5,26.25-.16.17-.33.34-.5.5-2.68,2.75-5.52,5.4-8.17,8.08-4.77,4.54-6.31,11.52-3.9,17.65,1.9,6.59,7.69,11.31,14.53,11.85,4.17.45,8.4.18,12.59.27,11.1.2,18.19,6.94,18.55,17.99.25,8.02.25,16.08,0,24.1-.32,11.51-7.52,18.37-19.08,18.46-3.71,0-7.41-.13-11.1,0-6.99.16-13.14,4.67-15.38,11.3-2.78,6.28-1.3,13.64,3.71,18.35,2.64,2.75,5.5,5.4,8.17,8.08,7.4,7.19,7.57,19.03.37,26.43-.12.13-.25.25-.37.37-5.5,5.67-11.15,11.19-16.78,16.75-3.55,3.6-8.4,5.62-13.45,5.59ZM163.81,280.34c-.1,44.01,35.5,79.77,79.51,79.86,44.01.1,79.77-35.5,79.86-79.51.1-43.98-35.45-79.73-79.43-79.86-43.93-.22-79.72,35.22-79.94,79.14,0,.12,0,.24,0,.36Z" style="fill: rgb(200, 78, 168);"/></g><g id="Q83r0t-5_settings-49" class="cls-13_settings-49"><path class="cls-10_settings-49" d="M444.98,254.47c-2.15-.56-3.98-1.98-5.07-3.92-.81-1.42-1.55-2.9-2.37-4.3-1.45-2.86-4.58-4.47-7.75-3.99-3.19.27-5.87,2.51-6.69,5.61-.54,1.67-.95,3.36-1.51,5.02-1.37,4.35-6,6.77-10.35,5.41,0,0-.02,0-.03,0-3.13-.88-6.28-1.8-9.41-2.75-4.46-1.22-7.08-5.82-5.87-10.27.02-.07.04-.13.06-.2.45-1.67,1.03-3.33,1.46-5.02.88-3.03-.24-6.28-2.79-8.13-2.32-2.04-5.69-2.36-8.36-.81-1.46.74-2.86,1.58-4.32,2.34-4.13,2.24-9.3.7-11.53-3.43-.03-.05-.06-.11-.09-.17-1.65-2.95-3.29-5.9-4.89-8.89-2.32-3.91-1.03-8.97,2.89-11.29.17-.1.34-.19.51-.28,1.37-.77,2.79-1.47,4.16-2.27,2.78-1.37,4.37-4.37,3.94-7.45-.15-3.14-2.27-5.85-5.29-6.75-1.65-.58-3.36-.97-5.02-1.51-4.47-1.18-7.13-5.76-5.94-10.23.06-.24.14-.48.22-.71.86-2.97,1.8-5.95,2.63-8.99,1.13-4.3,5.47-6.92,9.8-5.92,1.8.36,3.47.94,5.2,1.44,3.12,1.19,6.65.22,8.72-2.39,2.13-2.56,2.34-6.21.5-8.99-.74-1.33-1.49-2.64-2.18-4.01-2.17-3.94-.73-8.9,3.21-11.07.02-.01.04-.02.06-.03,3.18-1.8,6.42-3.6,9.7-5.16,4.03-1.99,8.91-.48,11.12,3.44.85,1.46,1.6,2.99,2.46,4.42,1.44,2.73,4.45,4.25,7.5,3.8,3.15-.19,5.83-2.36,6.67-5.4.5-1.56.9-3.15,1.39-4.71,1.17-4.53,5.8-7.25,10.33-6.08.24.06.47.13.7.21l8.74,2.57c4.52,1.11,7.28,5.66,6.17,10.18-.04.16-.08.31-.13.47-.38,1.53-.86,3.02-1.31,4.53-1.31,4.14.98,8.56,5.12,9.87,2.1.66,4.38.42,6.28-.67,1.33-.72,2.66-1.47,4.01-2.18,4.11-2.26,9.27-.75,11.53,3.36,0,0,0,0,0,0,1.73,3.05,3.41,6.1,5.05,9.17,2.24,3.92.88,8.92-3.04,11.17-.1.06-.2.11-.3.16-1.48.83-2.99,1.56-4.46,2.41-2.57,1.35-4.08,4.11-3.83,7-.04,3.04,1.83,5.77,4.68,6.84,1.71.7,3.6,1.12,5.4,1.67,4.15.93,6.75,5.05,5.82,9.2-.06.25-.13.5-.21.75-.88,3.44-1.89,6.85-2.99,10.22-1.08,4.2-5.36,6.74-9.57,5.66-.28-.07-.56-.16-.83-.26-1.56-.43-3.13-.97-4.71-1.33-2.98-.81-6.15.35-7.91,2.88-1.95,2.32-2.23,5.62-.7,8.24.77,1.49,1.65,2.93,2.45,4.42,2.25,3.97.85,9.01-3.12,11.25-.07.04-.14.08-.21.12-3.04,1.8-6.12,3.36-9.19,5.02-1.97,1.13-4.32,1.39-6.49.72ZM398.82,186.96c-4.2,14.3,3.99,29.29,18.29,33.49,14.3,4.2,29.29-3.99,33.49-18.29,4.18-14.25-3.94-29.21-18.18-33.45-14.28-4.26-29.31,3.86-33.57,18.14-.01.04-.02.08-.03.11Z"/></g><g id="Q83r0t-6_settings-49"><path class="cls-9_settings-49 targetColor" d="M441.87,255.89c-2.15-.58-3.98-2-5.07-3.94-.81-1.42-1.53-2.88-2.37-4.28-1.44-2.87-4.56-4.49-7.73-4.01-3.2.27-5.89,2.52-6.71,5.63-.52,1.65-.94,3.36-1.51,5-1.36,4.34-5.98,6.77-10.32,5.41-.01,0-.03,0-.04-.01-3.14-.9-6.28-1.82-9.41-2.75-4.47-1.22-7.1-5.83-5.88-10.29.02-.06.03-.12.05-.17.45-1.69,1.03-3.35,1.46-5.04.89-3.02-.22-6.27-2.77-8.11-2.34-2.02-5.69-2.35-8.38-.83-1.46.74-2.86,1.58-4.32,2.34-4.12,2.26-9.29.75-11.55-3.36-.02-.04-.05-.08-.07-.13-1.65-2.95-3.29-5.91-4.89-8.89-2.32-3.92-1.02-8.99,2.9-11.31.16-.1.33-.19.5-.27,1.39-.77,2.81-1.47,4.16-2.25,2.76-1.4,4.34-4.38,3.96-7.45-.16-3.15-2.28-5.86-5.31-6.76-1.65-.56-3.36-.95-5.02-1.51-4.46-1.18-7.11-5.75-5.92-10.21.06-.24.14-.48.22-.71.86-2.99,1.73-5.98,2.61-8.99,1.12-4.3,5.47-6.93,9.8-5.92,1.8.36,3.49.92,5.22,1.42,3.13,1.12,6.62.08,8.63-2.57,2.16-2.55,2.36-6.22.5-8.99-.72-1.33-1.49-2.64-2.18-3.99-2.16-3.96-.71-8.92,3.25-11.08,0,0,.02-.01.03-.01,3.18-1.82,6.41-3.55,9.7-5.18,4.04-1.98,8.92-.48,11.13,3.44.85,1.47,1.58,2.99,2.46,4.42,1.42,2.75,4.44,4.27,7.5,3.8,3.15-.19,5.83-2.36,6.67-5.4.5-1.55.9-3.15,1.4-4.69,1.16-4.52,5.77-7.24,10.29-6.08.24.06.48.13.71.22l8.76,2.55c4.52,1.12,7.28,5.69,6.16,10.22-.04.15-.08.29-.12.43-.4,1.53-.86,3.04-1.31,4.55-1.3,4.14,1,8.55,5.14,9.86,2.08.66,4.35.41,6.25-.67,1.35-.72,2.66-1.49,4.01-2.19,4.11-2.25,9.27-.74,11.52,3.37,0,0,0,0,0,.01,1.73,3.02,3.42,6.08,5.07,9.17,2.23,3.93.85,8.93-3.08,11.16-.09.05-.19.11-.29.16-1.46.85-2.99,1.58-4.46,2.41-2.57,1.35-4.08,4.11-3.83,7-.04,3.04,1.84,5.78,4.69,6.84,1.8.7,3.6,1.12,5.4,1.67,4.15.93,6.76,5.05,5.83,9.2-.06.26-.13.52-.21.77-.88,3.44-1.8,6.85-2.99,10.22-1.08,4.2-5.36,6.74-9.57,5.66-.28-.07-.56-.16-.83-.26-1.56-.45-3.11-.97-4.71-1.35-2.98-.8-6.14.35-7.91,2.88-1.95,2.32-2.23,5.62-.7,8.24.77,1.51,1.67,2.95,2.46,4.44,2.29,3.93.96,8.98-2.98,11.26-.15.09-.3.17-.46.25-3.04,1.8-6.12,3.36-9.19,5.02-1.95,1.07-4.24,1.31-6.37.68ZM395.71,188.38c-4.19,14.3,4.01,29.29,18.31,33.48,14.3,4.19,29.29-4.01,33.48-18.31,4.17-14.25-3.96-29.2-18.19-33.44-14.28-4.26-29.31,3.87-33.56,18.15-.01.04-.02.08-.04.12Z" style="fill: rgb(200, 78, 168);"/></g></g><g id="character_settings-49"><path class="cls-6_settings-49" d="M192.18,246.77c1.13,1.69,1.59,3.74,1.3,5.76-.11,1.94-.39,3.86-.83,5.76-.9,3.76-2.43,7.68-1.24,11.35.99,2.22,2.24,4.32,3.71,6.26,1.35,2.14,1.98,4.67,1.8,7.2-.23,2.56-1.68,4.84-3.9,6.13-2.97-5.5-7.7-9.8-11.6-14.7-3.9-4.89-7.2-10.95-6.17-17.12.69-4.04,3.06-7.59,6.51-9.79,2.57-1.56,7.84-3.99,10.43-.85Z"/><path class="cls-11_settings-49" d="M192.18,246.77c1.13,1.69,1.59,3.74,1.3,5.76-.11,1.94-.39,3.86-.83,5.76-.9,3.76-2.43,7.68-1.24,11.35.99,2.22,2.24,4.32,3.71,6.26,1.35,2.14,1.98,4.67,1.8,7.2-.23,2.56-1.68,4.84-3.9,6.13-2.97-5.5-7.7-9.8-11.6-14.7-3.9-4.89-7.2-10.95-6.17-17.12.69-4.04,3.06-7.59,6.51-9.79,2.57-1.56,7.84-3.99,10.43-.85Z"/><path class="cls-11_settings-49" d="M257.91,384.56c1.15,1.56,2.51,2.96,4.05,4.16.91.49,1.71,1.18,2.32,2.01.29.67.47,1.38.54,2.1.74,4.08,4.66,7.84,8.71,6.93l1.94-13.6c.25-1.03.25-2.11,0-3.15-.41-.92-1.02-1.73-1.8-2.37-4.87-4.79-9.1-10.19-12.59-16.06-.77-1.65-1.95-3.07-3.44-4.12-1.46-.85,0-1.91-1.65-1.44-4.35,1.22-7.32,1.15-17.43,1.06,0,0,3.18,4.32,4.59,6.04l7.43,9.23c.94,1.28,5.95,9.21,7.34,9.21Z"/><path class="cls-8_settings-49" d="M311.01,313.58c.53-.5,1.14-.92,1.8-1.22.68-.29,1.45-.17,2.01.31.45.57.58,1.33.36,2.01-.18.68-.54,1.33-.7,2.01-.09.65-.23,1.28-.43,1.91-.54.92-1.37,1.63-2.36,2.03-4.17,2.33-7.9,5.37-11.01,8.99-.29.36-.62.69-.99.97-1.28.63-2.79.57-4.01-.16-2.64-1.48-4.92-3.54-6.66-6.03-.22-.25-.38-.54-.47-.86-.03-.3.02-.61.14-.88,1.8-4.68,6.6-3.08,10.49-3.72,4.34-.72,8.41-2.57,11.82-5.36Z"/><path class="cls-5_settings-49" d="M186.55,338.6s10.54,13.1,25,6.66c14.46-6.44,31.41-27.7,31.41-27.7,0,0,22,7.9,36.82,7.64l9.97.34c2.75-1.53,4.15-4.7,3.44-7.77,0,0-43.66-16.4-47.79-16.84-4.93-.66-9.94.18-14.39,2.39-5.85,2.77-28.4,13.36-28.4,13.36l-16.04,21.91Z"/><path class="cls-11_settings-49" d="M186.55,338.6s10.54,13.1,25,6.66c14.46-6.44,31.41-27.7,31.41-27.7,0,0,22,7.9,36.82,7.64l9.97.34c2.75-1.53,4.15-4.7,3.44-7.77,0,0-43.66-16.4-47.79-16.84-4.93-.66-9.94.18-14.39,2.39-5.85,2.77-28.4,13.36-28.4,13.36l-16.04,21.91Z"/><path class="cls-5_settings-49" d="M189.41,325.2s-3.29,17.36,11.58,22.79c14.88,5.43,43.58,1.35,43.58,1.35,0,0,10.31,20.99,21.12,31.12l6.91,7.2c3.04.82,6.26-.48,7.88-3.18,0,0-19.95-42.16-22.61-45.35-3.09-3.92-7.29-6.83-12.05-8.35-6.12-2.07-41.05-14.5-41.05-14.5l-15.36,8.92Z"/><path class="cls-8_settings-49" d="M296.24,393.89c.72,0,1.44.13,2.12.38.69.26,1.18.9,1.24,1.64-.07.72-.51,1.35-1.15,1.67-.59.38-1.3.59-1.89.97-.52.4-1.06.76-1.64,1.08-1.03.28-2.12.21-3.11-.2-4.6-1.24-9.38-1.65-14.12-1.22-.46.06-.93.06-1.39,0-1.36-.43-2.41-1.53-2.77-2.91-.88-2.91-1.08-5.99-.59-8.99,0-.34.1-.66.27-.95.19-.23.44-.41.72-.52,4.53-2.1,6.87,2.37,10.13,4.62,3.6,2.52,7.8,4.05,12.18,4.44Z"/><polygon class="cls-9_settings-49 targetColor" points="248.97 264.04 242.13 301.11 213.39 308.49 212.98 305.95 239.27 298.68 245.66 263.63 248.97 264.04" style="fill: rgb(200, 78, 168);"/><polygon class="cls-9_settings-49 targetColor" points="239.92 287.31 229.27 289.29 212.98 305.95 239.27 298.68 239.92 287.31" style="fill: rgb(200, 78, 168);"/><polygon class="cls-2_settings-49" points="239.92 287.31 229.27 289.29 212.98 305.95 239.27 298.68 239.92 287.31"/><polygon class="cls-9_settings-49 targetColor" points="239.85 288.5 235.55 289.29 225.24 301.11 237.17 298.63 239.85 288.5" style="fill: rgb(200, 78, 168);"/><polygon class="cls-9_settings-49 targetColor" points="237.73 299.55 244.29 263 262.91 254.22 264.19 254.79 239.27 298.68 237.73 299.55" style="fill: rgb(200, 78, 168);"/><path class="cls-8_settings-49" d="M191.8,254.04c.7.83,1.91,1.19,2.45,2.14.54.95,0,2.54-.23,3.83-.32,1.8.18,3.6-.13,5.49-.05.39-.2.76-.45,1.06-.25.22-.53.39-.85.5-1.22.47-2.51.76-3.81.86-.26-.02-.53.06-.74.22-.16.2-.24.46-.22.72-.2,3.35.42,6.71,1.8,9.77.45,1.01.97,2.25.32,3.15-.25.3-.56.52-.92.67-2.34.99-5-.43-6.96-2.05-1.75-1.45-3.33-3.11-4.69-4.93-.41-.5-.73-1.06-.94-1.67-.16-.81-.16-1.65,0-2.46.29-2.78.29-5.58,0-8.36-.4-3.6-1.26-7.2-.45-10.67.21-1.19.8-2.29,1.69-3.11,1.06-.73,2.31-1.15,3.6-1.22,2.59-.32,5.4-.45,7.52,1.13.49.56,2.14,3.92,3,4.95Z"/><path class="cls-7_settings-49" d="M176.64,273.97s11.46,3.72,15.34,7.46,9.64,6.06,8.99,14.5c-.65,8.44,3.85,20.4,3.85,20.4,0,0-2.19,15.18-12.83,20.69-10.63,5.5-7.77,3.83-7.77,3.83,0,0-10.41-25.72-13.98-32.77-3.56-7.05-4.1-33.58,6.39-34.1Z"/><path class="cls-11_settings-49" d="M195.71,331.4c.21.83.14,1.71-.2,2.5-.38.59-.89,1.09-1.48,1.48-1.34,1.1-2.85,1.98-4.46,2.61-1.64.63-3.49.42-4.95-.56-.74-.64-1.35-1.42-1.8-2.28-4.23-6.54-7.73-13.53-10.43-20.83-2.7-7.34-3.49-15.24-2.3-22.97l7.07,7.97c2.87,3.49,6.13,6.64,9.71,9.39,3.61,2.75,8.05,4.19,12.59,4.08,5.2-.36,5.61,2.86,3.4,7.2-2.21,4.34-4.71,2.12-8.4,1.49-1.78,2.84.72,6.93,1.24,9.93Z"/><path class="cls-6_settings-49" d="M184.11,272.39c.46,1.76.64,3.58.52,5.4-.02.73-.19,1.46-.5,2.12-.39.63-.91,1.17-1.51,1.6-1.53,1.17-3.19,2.15-4.95,2.93-1.66.61-3.28,1.33-4.84,2.16l-.13.09c-2.32,1.44-4.04,3.68-4.82,6.3-.18.61-1.62-1.15-1.67-1.24-.4-.77-.76-1.56-1.06-2.37-.63-2.01-1.03-4.09-1.19-6.19-.76-4.46-6.31-12.12-3.6-16.48.94-1.51,2.59-2.41,3.76-3.74h0c2.54-2.97,2.23-7.34,3.6-10.99,1.17-3.27,3.61-5.92,6.76-7.37,4.3-1.94,12.59-1.91,13.01,4.37.2,2.79-1.55,4.59-2.99,6.71-1.61,2.12-2.6,4.65-2.84,7.3-.09,3.22,1.64,6.24,2.45,9.41Z"/><path class="cls-7_settings-49" d="M183.03,287.19s9.64,16.91,11.17,17.99c1.53,1.08-11.3,11.42-11.3,11.42,0,0-12.12-15.99-12.93-23.67-.81-7.68,6.67-12.03,13.06-5.74Z"/><path class="cls-8_settings-49" d="M182.5,314.17s1.44,5.72,8.54,4.42l31.57-5.67c1.98-1.48,4.89-2.14,6.21-4.23.63-.99.83-2.19,1.42-3.22.85-1.29,2.12-2.24,3.6-2.68,1.43-.46,2.92-.75,4.42-.85.46-.81.27-1.82-.45-2.41-.73-.54-1.61-.84-2.52-.86-3.79-.33-7.55.85-10.47,3.29-.81.83-1.74,1.53-2.75,2.1-.77.29-1.57.47-2.39.54-9.21,1.06-18.53.61-27.72,1.71-2.18.17-4.29.78-6.22,1.8-1.99,1.38-3.19,3.63-3.24,6.04Z"/><path class="cls-1_settings-49" d="M172.32,259.22c-.13,3.31,1.17,6.58.79,9.89-.43,2.2-1.03,4.37-1.8,6.48-.74,2.88-1.08,6.67.5,9.34.34.58.64,1.18.9,1.8-2.32,1.44-4.04,3.68-4.82,6.3-.18.61-1.62-1.15-1.67-1.24-.4-.77-.76-1.56-1.06-2.37-.63-2.01-1.03-4.09-1.19-6.19-.76-4.46-6.31-12.12-3.6-16.48.94-1.51,2.59-2.41,3.76-3.74h0c.4-.3.78-.63,1.13-.99,1.45-1.83,2.73-3.79,3.83-5.85,2.22-3.33,5.5-5.81,9.3-7.05-3.55,2.18-5.82,5.95-6.08,10.11Z"/><polygon class="cls-9_settings-49 targetColor" points="264.19 254.79 245.66 263.63 239.27 298.68 242.13 301.11 256.58 290.79 264.19 254.79" style="fill: rgb(200, 78, 168);"/><polygon class="cls-4_settings-49" points="264.19 254.79 245.66 263.63 239.27 298.68 242.13 301.11 256.58 290.79 264.19 254.79"/><polygon class="cls-9_settings-49 targetColor" points="226.38 293.18 231.36 292.64 226.75 298.07 221.57 298.29 226.38 293.18" style="fill: rgb(200, 78, 168);"/></g></svg>